<?xml version="1.0" standalone="no"?>
<!DOCTYPE svg PUBLIC "-//W3C//DTD SVG 20010904//EN"
 "http://www.w3.org/TR/2001/REC-SVG-20010904/DTD/svg10.dtd">
<svg version="1.0" xmlns="http://www.w3.org/2000/svg"
 width="664.000000pt" height="400.000000pt" viewBox="0 0 664.000000 400.000000"
 preserveAspectRatio="xMidYMid meet">

<g transform="translate(0.000000,400.000000) scale(0.100000,-0.100000)"
fill="#000000" stroke="none">
<path d="M5045 3735 c-204 -41 -367 -128 -517 -273 -181 -175 -285 -397 -308
-655 -24 -270 -62 -998 -56 -1070 12 -151 52 -293 116 -416 l39 -74 -29 -34
c-47 -53 -72 -112 -78 -179 l-5 -61 -56 -18 c-175 -55 -263 -144 -296 -302
-18 -85 -20 -442 -4 -510 15 -58 70 -117 124 -132 56 -15 2474 -15 2530 0 54
15 109 74 124 132 16 68 14 425 -4 510 -33 158 -121 247 -296 302 l-56 18 -5
61 c-6 68 -35 135 -79 181 l-29 31 34 64 c68 127 109 274 122 427 6 74 -34
830 -56 1058 -45 473 -382 854 -830 939 -97 19 -297 19 -385 1z m75 -432 c-37
-18 -84 -55 -145 -117 -49 -50 -80 -77 -68 -60 56 79 216 205 258 204 6 -1
-15 -12 -45 -27z m270 -6 c42 -25 153 -130 183 -172 12 -16 -19 11 -68 61 -59
60 -109 100 -145 118 -30 15 -44 24 -30 20 14 -3 41 -16 60 -27z m-536 -262
c-9 -14 -18 -25 -21 -25 -5 0 5 18 20 38 17 22 18 13 1 -13z m786 -6 c15 -28
5 -23 -15 7 -9 15 -12 23 -6 20 6 -4 16 -16 21 -27z m64 -119 c127 -243 225
-580 257 -884 l9 -89 -36 -66 c-142 -258 -406 -415 -699 -414 -292 2 -546 154
-689 415 l-36 65 10 99 c32 287 132 634 251 864 l39 75 430 0 430 0 34 -65z"/>
<path d="M4800 2603 c-40 -14 -53 -69 -22 -96 14 -13 38 -17 100 -17 69 0 85
3 102 20 27 27 25 55 -6 79 -21 17 -40 21 -93 20 -36 0 -73 -3 -81 -6z"/>
<path d="M5520 2597 c-31 -16 -39 -61 -14 -88 14 -16 31 -19 99 -19 92 0 118
12 118 55 0 46 -33 65 -112 65 -36 0 -77 -6 -91 -13z"/>
<path d="M4854 2417 c-29 -16 -34 -27 -34 -83 0 -58 20 -84 63 -84 35 0 57 34
57 91 0 62 -43 100 -86 76z"/>
<path d="M5590 2422 c-28 -8 -40 -35 -40 -88 0 -60 17 -84 59 -84 37 0 52 20
59 75 7 66 -30 112 -78 97z"/>
<path d="M685 2837 c-3 -7 -4 -91 -3 -187 l3 -174 98 3 97 3 0 -295 c0 -322 8
-392 56 -514 37 -94 86 -165 169 -249 80 -81 159 -130 271 -170 76 -27 89 -28
301 -32 258 -4 325 7 472 79 157 77 294 240 357 425 27 78 28 83 33 414 l6
335 98 -1 97 0 0 182 c0 180 0 182 -22 188 -30 8 -129 7 -195 0 l-51 -7 -4
-361 c-4 -312 -7 -369 -22 -416 -68 -209 -224 -362 -427 -417 -94 -26 -515
-26 -609 0 -204 55 -364 208 -431 412 -9 29 -15 145 -18 415 l-6 375 -133 3
c-102 2 -134 0 -137 -11z"/>
<path d="M1057 2672 c-22 -24 -21 -55 1 -75 16 -15 46 -17 205 -17 201 0 217
4 217 55 0 51 -16 55 -219 55 -169 0 -190 -2 -204 -18z"/>
<path d="M1957 2672 c-22 -24 -21 -55 1 -75 16 -15 45 -17 204 -17 166 0 187
2 201 18 22 24 21 55 -1 75 -16 15 -45 17 -204 17 -166 0 -187 -2 -201 -18z"/>
<path d="M1230 2470 c-16 -16 -20 -33 -20 -93 0 -81 16 -117 54 -117 42 0 56
29 56 118 0 72 -2 83 -22 96 -30 21 -44 20 -68 -4z"/>
<path d="M1569 2471 c-24 -19 -24 -22 -24 -198 0 -161 2 -181 20 -213 30 -51
75 -70 168 -70 76 0 80 1 113 34 30 30 34 40 34 88 0 61 -20 98 -54 98 -36 0
-57 -23 -63 -68 -5 -40 -7 -42 -38 -42 -67 0 -65 -5 -65 179 0 91 -4 171 -8
177 -7 10 -45 34 -55 34 -3 0 -15 -9 -28 -19z"/>
<path d="M2122 2474 c-20 -14 -22 -24 -22 -98 0 -89 13 -116 57 -116 39 0 53
30 53 118 0 72 -2 83 -22 96 -12 9 -27 16 -33 16 -6 0 -21 -7 -33 -16z"/>
<path d="M1428 1919 c-67 -39 -29 -106 97 -169 147 -73 353 -46 468 62 41 40
47 68 17 98 -28 28 -40 25 -95 -16 -120 -92 -279 -98 -385 -15 -32 26 -74 51
-82 51 -2 0 -11 -5 -20 -11z"/>
</g>
</svg>
